# xmcd
#
# Track frame offsets:
#	150
#	11350
#	24465
#	35695
#	47361
#	60152
#	75266
#	85575
#	95983
#	107938
#	120046
#	131925
#	150403
#	161309
#	173178
#	182968
#	197669
#
# Disc length: 2768
#
# Revision: 1
# Processed by: cddbd v1.5.1PL0 Copyright (c) Steve Scherf et al.
# Submitted via: audiograbber 1.81.03
# Normalized: r0:DSETVAR2
#
DISCID=c30ace11
DTITLE=Various Artist - Country - CD 01
DYEAR=2000
DGENRE=Country
TTITLE0=Johnny Cash - Oh lonesome me
TTITLE1=Kenny Rogers and First Edition - Ruby don't take your love to town
TTITLE2=Faron Young - Country girl
TTITLE3=Dolly Parton - Making believe
TTITLE4=Boxcar Willie - North of alaska
TTITLE5=Willie Nelson - Face of a fighter
TTITLE6=Ferlin Husky - Wings of a dove
TTITLE7=John Denver - The eagle and the hawk
TTITLE8=Waylon Jennings - Crying
TTITLE9=Billie Jo Spears - What have they done to my song ma
TTITLE10=Dave Dudley - Six days on the road
TTITLE11=Boxcar Willie - Convoy
TTITLE12=Johnny Cash - Wide open road
TTITLE13=George Jones - Your tender years
TTITLE14=Freddy Fender - I don't know why i love you but i do
TTITLE15=Johnny Paycheck - Green green grass of home
TTITLE16=Bobby Bare - Help me make it throught the night
EXTD=
EXTT0=
EXTT1=
EXTT2=
EXTT3=
EXTT4=
EXTT5=
EXTT6=
EXTT7=
EXTT8=
EXTT9=
EXTT10=
EXTT11=
EXTT12=
EXTT13=
EXTT14=
EXTT15=
EXTT16=
PLAYORDER=
